<!-- Generated by IcoMoon.io -->
<svg version="1.1" xmlns="http://www.w3.org/2000/svg" width="1109" height="1024" viewBox="0 0 1109 1024">
<title>home</title>
<g id="icomoon-ignore">
</g>
<path fill="#d31342" d="M1096.098 499.613c19.174-21.088 17.323-53.408-4.139-72.172l-472.707-413.623c-21.456-18.763-55.856-18.37-76.861 0.886l-474.317 434.79c-21.005 19.257-22.036 51.536-2.282 72.068l11.892 12.384c19.729 20.533 51.618 22.98 71.182 5.451l35.448-31.744v464.745c0 28.518 23.104 51.601 51.598 51.601h184.889c28.494 0 51.599-23.083 51.599-51.601v-325.133h235.829v325.133c-0.41 28.493 19.977 51.584 48.47 51.584h195.936c28.493 0 51.601-23.091 51.601-51.601v-458.185c0 0 9.788 8.579 21.871 19.195 12.058 10.595 37.376 2.1 56.55-19.008l13.44-14.771z"></path>
</svg>
